# xmcd
#
# Track frame offsets: 
#        150
#        18043
#        65163
#        87247
#        111357
#        145501
#        160744
#        175850
#        204987
#        209267
#        217196
#        223397
#        301328
#
# Disc length: 4173 seconds
#
# Revision: 3
# Processed by: cddbd v1.5.2PL0 Copyright (c) Steve Scherf et al.
# Submitted via: ExactAudioCopyFreeDBPlugin 1.0
#
DISCID=be104b0d
DTITLE=Sharon Kam - Artist Portrait - Warner Classics 0927 49708-2
DYEAR=2003
DGENRE=Classical
TTITLE0=Romanze op. 94 No. 1 - Nicht schnell
TTITLE1=Clarinet Concerto in E flat major op. 36 - 1. Allegro
TTITLE2=Clarinet Concerto in E flat major op. 36 - 2. Adagio
TTITLE3=Clarinet Concerto in E flat major op. 36 - 3. Rondo, Allegro m
TTITLE3=oderato
TTITLE4=Clarinet Concerto in A major K. 622 - Adagio
TTITLE5=Clarinet Sonata in B major - Allegro con fuoco
TTITLE6=Phantasiestücke op. 73 - Zart und mit Ausdruck
TTITLE7=Clarinet Concerto No. 1 in F minor - Rondo, Allegretto
TTITLE8=3 Miniatures - 1. Allegro
TTITLE9=3 Miniatures - 2. Andante cantabile
TTITLE10=3 Miniatures - 3. Allegro ma non troppo
TTITLE11=Clarinet Concerto
TTITLE12=I got Rhythm
EXTD=YEAR: 2003
EXTT0=
EXTT1=
EXTT2=
EXTT3=
EXTT4=
EXTT5=
EXTT6=
EXTT7=
EXTT8=
EXTT9=
EXTT10=
EXTT11=
EXTT12=
PLAYORDER=
